<?xml version="1.0" standalone="no"?>
<!DOCTYPE svg PUBLIC "-//W3C//DTD SVG 20010904//EN"
 "http://www.w3.org/TR/2001/REC-SVG-20010904/DTD/svg10.dtd">
<svg version="1.0" xmlns="http://www.w3.org/2000/svg"
 width="260.000000pt" height="260.000000pt" viewBox="0 0 260.000000 260.000000"
 preserveAspectRatio="xMidYMid meet">
<metadata>
Created by potrace 1.14, written by Peter Selinger 2001-2017
</metadata>
<g transform="translate(0.000000,260.000000) scale(0.100000,-0.100000)"
fill="#000000" stroke="none">
<path d="M1010 2588 c0 -5 -4 -7 -9 -4 -5 3 -11 -1 -14 -9 -4 -8 -15 -12 -26
-10 -19 4 -24 -17 -6 -32 4 -4 5 -3 1 4 -4 8 0 11 14 8 11 -2 18 0 15 5 -7 11
32 33 45 25 5 -3 11 -1 15 5 3 5 11 10 18 10 19 0 -7 -20 -33 -25 -13 -2 -27
-10 -31 -17 -5 -7 -14 -13 -21 -13 -7 -1 -12 -6 -10 -13 1 -9 -3 -9 -18 0 -11
7 -20 16 -20 19 0 4 -7 10 -16 13 -14 5 -15 4 -5 -8 9 -11 9 -16 0 -22 -8 -4
-9 -3 -5 4 11 18 -36 10 -52 -8 -12 -13 -13 -13 -8 3 3 11 2 16 -4 12 -14 -9
-12 -32 3 -38 6 -2 -1 -4 -16 -4 -20 0 -25 3 -18 10 6 6 11 15 11 21 0 5 -7 1
-15 -10 -8 -10 -15 -15 -15 -10 0 12 -30 -14 -30 -27 0 -6 6 -3 13 6 11 16 13
16 26 -5 13 -21 13 -22 -2 -9 -14 11 -18 11 -23 -4 -5 -13 -9 -14 -15 -4 -4 7
-16 14 -26 15 -17 3 -17 2 1 -12 23 -16 14 -19 -15 -3 -11 5 -16 15 -13 21 4
7 3 8 -4 4 -9 -5 -9 -13 -2 -26 13 -25 12 -40 -1 -17 -15 26 -32 21 -18 -5 12
-22 12 -22 -14 -5 -19 12 -28 14 -33 5 -4 -6 -3 -9 2 -6 5 3 15 0 22 -8 8 -9
9 -14 2 -14 -6 0 -8 -6 -4 -12 4 -7 -1 -5 -12 4 -14 12 -23 14 -34 7 -12 -9
-11 -10 5 -5 20 6 20 6 1 -9 -24 -18 -36 -19 -32 -2 1 6 1 9 -1 5 -3 -5 -11
-8 -19 -8 -12 0 -12 -3 -2 -14 7 -8 18 -11 23 -8 6 3 6 1 2 -4 -10 -10 -13
-11 -59 -13 -21 -2 -28 -5 -18 -9 8 -4 16 -13 18 -20 1 -9 -5 -8 -22 3 -29 19
-36 10 -31 -36 4 -30 4 -31 -5 -10 -8 18 -13 21 -24 12 -7 -6 -15 -8 -19 -5
-3 3 -10 -4 -17 -15 -6 -12 -15 -19 -19 -16 -5 2 -7 -12 -5 -33 2 -25 0 -32
-6 -22 -5 8 -12 11 -16 7 -4 -4 -14 -1 -23 5 -9 7 -13 8 -9 4 4 -5 2 -16 -5
-25 -11 -14 -10 -14 6 -2 11 9 17 10 17 2 0 -6 -10 -16 -22 -21 -13 -5 -18 -9
-12 -9 6 -1 11 -8 11 -16 0 -8 -5 -11 -11 -7 -27 16 -39 9 -16 -9 14 -12 19
-18 12 -14 -6 3 -15 -1 -18 -9 -3 -9 -11 -13 -16 -10 -6 4 -6 9 2 14 8 5 8 10
2 14 -17 10 -21 -20 -6 -49 13 -25 13 -26 -2 -14 -19 15 -47 21 -38 8 3 -5 10
-7 15 -4 5 4 9 2 9 -3 0 -6 -8 -13 -17 -17 -17 -7 -16 -8 2 -15 16 -7 17 -9 3
-9 -9 -1 -20 4 -23 9 -4 6 -11 8 -16 4 -5 -3 -7 -10 -4 -15 4 -5 1 -9 -5 -9
-6 0 -8 -5 -4 -11 4 -8 9 -7 15 2 5 9 11 10 16 4 5 -6 6 -9 4 -8 -11 7 -29
-20 -24 -35 6 -14 5 -15 -9 -2 -9 8 -13 19 -10 24 3 5 0 6 -7 2 -6 -4 -9 -11
-6 -16 3 -5 1 -11 -5 -15 -6 -4 -7 -11 -4 -17 5 -7 2 -9 -8 -5 -10 3 -15 0
-14 -11 0 -9 -5 -16 -12 -14 -8 1 -11 -2 -7 -8 4 -6 13 -9 21 -6 12 5 12 2 3
-17 -7 -12 -12 -23 -11 -24 5 -7 -10 -4 -16 3 -4 4 -2 4 4 1 6 -3 11 0 11 8 0
11 -4 12 -13 4 -15 -12 -6 -51 10 -42 6 3 6 0 -1 -7 -11 -12 -16 -11 -28 6
-14 18 -14 17 -4 -8 7 -16 19 -28 28 -29 11 0 12 -2 3 -6 -7 -3 -23 3 -34 13
l-21 19 16 -26 c18 -27 14 -39 -12 -38 -13 0 -12 2 2 8 18 7 18 8 1 21 -10 8
-15 10 -11 3 4 -6 2 -15 -4 -19 -9 -5 -6 -11 7 -22 18 -14 18 -14 -3 -9 -19 4
-21 2 -13 -13 12 -22 13 -41 2 -37 -4 1 -8 -2 -9 -7 -1 -5 -7 -13 -15 -17 -10
-7 -10 -9 0 -9 7 0 10 -5 6 -12 -4 -7 -3 -8 5 -4 6 4 9 11 6 16 -3 4 1 10 8
13 7 3 13 -3 13 -13 0 -10 -4 -16 -8 -14 -4 3 -8 2 -9 -3 0 -4 -2 -16 -4 -25
-2 -10 1 -18 6 -18 5 0 9 -5 9 -11 0 -8 -5 -8 -15 1 -8 7 -15 9 -15 6 0 -4 -8
-2 -18 3 -16 9 -18 -4 -20 -231 -2 -191 0 -238 10 -232 9 6 9 3 -1 -9 -11 -14
-11 -17 0 -17 11 0 11 -2 -1 -10 -8 -5 -11 -12 -7 -16 4 -4 17 1 29 12 l22 19
-20 -26 c-10 -15 -22 -25 -26 -23 -9 6 -2 -31 10 -52 8 -14 10 -14 15 5 3 12
1 19 -3 16 -5 -3 -7 1 -6 7 3 21 16 38 29 38 7 0 4 -5 -5 -11 -16 -9 -17 -12
-2 -34 20 -31 29 -85 14 -85 -6 0 -8 5 -4 11 7 11 -12 29 -31 29 -5 -1 -2 -5
8 -11 9 -6 15 -15 12 -20 -4 -5 -10 -7 -15 -4 -5 3 -11 1 -14 -4 -3 -4 2 -8
12 -8 42 0 48 -3 32 -13 -10 -6 -11 -10 -2 -10 6 0 12 -5 12 -11 0 -5 -4 -7
-10 -4 -6 3 -7 -1 -4 -9 3 -9 11 -13 18 -9 7 5 7 2 -1 -8 -7 -9 -8 -20 -3 -29
5 -8 7 -17 5 -20 -2 -4 2 -7 10 -7 11 0 11 5 -2 26 -12 20 -12 22 -1 9 12 -14
17 -15 28 -5 12 10 12 9 2 -4 -9 -12 -9 -19 1 -29 9 -10 9 -11 -1 -6 -6 4 -12
2 -12 -3 0 -6 5 -11 11 -11 5 0 7 -5 4 -10 -3 -6 -1 -10 5 -10 6 0 8 -4 5 -10
-9 -14 14 -52 27 -44 7 4 8 3 4 -4 -5 -9 -13 -9 -29 0 -20 10 -21 10 -8 -5 7
-10 21 -17 30 -17 14 -1 14 -2 -1 -14 -10 -7 -18 -17 -18 -22 0 -4 5 -3 12 4
16 16 31 15 22 0 -5 -9 -2 -9 9 1 20 16 22 8 5 -22 -10 -20 -10 -21 6 -8 15
12 16 12 9 -5 -6 -16 -5 -17 9 -6 14 11 16 10 11 -7 -3 -13 -11 -18 -21 -14
-14 4 -15 3 -2 -5 8 -6 18 -8 23 -5 5 3 6 -5 2 -18 -7 -23 -7 -23 8 -4 8 11
13 24 10 30 -4 5 -2 6 2 2 12 -10 15 -38 4 -31 -5 3 -9 1 -9 -5 0 -5 9 -13 20
-16 11 -3 20 -11 20 -16 0 -6 6 -7 13 -3 6 4 9 4 5 -1 -4 -4 -3 -14 3 -21 7
-8 6 -14 -2 -20 -8 -5 -9 -3 -4 6 6 9 4 11 -5 5 -9 -5 -11 -4 -6 3 5 8 1 10
-10 5 -11 -4 -13 -8 -6 -11 7 -2 9 -9 6 -14 -4 -6 -2 -8 4 -4 10 6 27 -10 27
-28 0 -5 10 -10 22 -11 13 -1 23 3 23 8 0 6 3 7 7 3 5 -4 0 -13 -10 -21 -16
-11 -16 -13 -2 -19 11 -4 14 -2 9 7 -5 8 -2 7 9 -2 9 -7 17 -20 17 -27 0 -8 4
-14 10 -14 5 0 7 8 4 18 -4 12 -3 14 4 4 5 -8 8 -24 6 -38 -1 -13 1 -22 6 -19
4 3 10 -1 13 -9 6 -15 23 -16 46 -2 11 7 13 5 7 -10 -4 -10 -8 -21 -9 -24 -1
-3 3 -5 8 -5 6 0 9 3 7 8 -1 4 2 7 8 7 5 0 10 -5 10 -11 0 -5 4 -8 9 -5 13 8
62 -44 54 -58 -4 -6 0 -5 9 2 11 9 18 10 23 2 3 -6 11 -7 17 -4 7 4 8 2 4 -5
-6 -9 -11 -9 -22 0 -10 8 -14 8 -14 0 0 -6 6 -11 13 -11 8 0 7 -4 -3 -10 -8
-5 -10 -10 -5 -10 6 0 16 5 22 11 9 9 16 8 27 -3 8 -9 13 -18 10 -20 -2 -3 4
-12 14 -21 13 -12 21 -13 32 -6 13 9 12 10 -2 5 -10 -3 -20 -1 -23 4 -10 17
32 11 45 -6 11 -12 11 -15 0 -12 -7 2 -15 -4 -17 -12 -3 -9 -1 -11 4 -5 4 6
13 11 18 12 6 1 18 5 28 8 10 4 17 3 17 -5 0 -6 4 -9 8 -6 4 2 14 0 22 -6 12
-8 12 -9 -3 -4 -11 4 -16 2 -11 -5 3 -6 17 -9 30 -6 14 2 28 -1 32 -7 4 -6 19
-17 34 -25 15 -8 25 -19 21 -25 -3 -6 0 -5 8 1 16 15 33 17 24 3 -3 -6 1 -7 9
-4 9 3 14 10 11 14 -3 5 -1 12 5 15 6 4 9 1 8 -7 -2 -7 3 -12 10 -10 7 1 12
-3 10 -10 -2 -7 1 -14 5 -15 4 -1 17 -12 28 -25 17 -20 18 -21 12 -3 -6 19 -5
19 13 4 16 -14 51 -17 216 -18 186 -2 197 -1 192 16 -5 16 -4 16 5 2 9 -13 25
-16 78 -14 88 4 85 3 78 14 -7 12 -45 10 -45 -2 0 -4 -4 -5 -10 -2 -5 3 -10
14 -10 23 0 14 2 14 9 3 7 -11 10 -10 12 4 4 16 49 31 47 16 -2 -18 3 -31 12
-31 5 0 6 8 3 17 -6 16 -5 16 10 4 15 -12 17 -12 11 3 -5 12 -2 15 10 10 9 -3
13 -11 9 -18 -3 -6 3 -3 14 7 21 18 43 19 55 2 5 -6 8 -3 8 7 0 9 5 20 12 24
7 4 8 3 4 -4 -4 -7 -1 -12 9 -12 9 0 13 5 10 10 -4 7 5 9 27 5 23 -4 29 -2 18
4 -8 5 -17 8 -21 5 -4 -2 -11 1 -15 7 -4 8 -3 9 4 5 7 -4 12 -3 12 3 0 6 7 8
15 5 8 -4 15 -1 15 5 0 6 5 11 11 11 6 0 8 -8 5 -18 -6 -16 -5 -16 7 0 11 14
16 15 27 5 8 -8 11 -8 7 -1 -4 7 0 14 8 18 9 3 12 12 9 23 -5 15 -4 16 5 3 10
-13 15 -8 12 13 -2 11 6 8 23 -9 15 -14 16 -14 16 0 0 9 -6 16 -12 16 -7 0 -5
5 5 11 10 6 21 8 24 5 4 -3 1 -6 -6 -6 -7 0 -9 -5 -6 -11 9 -13 36 22 27 36
-3 5 4 1 17 -9 16 -15 24 -17 33 -8 7 7 8 12 3 12 -6 0 6 10 25 21 19 12 35
20 35 18 0 -2 12 9 28 24 27 28 36 44 17 32 -13 -8 -13 16 1 35 9 13 10 12 5
-2 -3 -12 0 -18 10 -18 11 0 14 5 10 16 -5 13 -4 14 7 6 22 -19 29 -1 10 27
-14 22 -14 24 -1 13 11 -9 18 -10 23 -2 9 15 28 13 19 -2 -4 -7 2 -5 13 5 11
9 23 14 26 10 4 -3 7 -1 7 6 0 8 -6 11 -16 7 -9 -3 -12 -2 -9 5 4 5 1 17 -7
26 -11 14 -8 13 15 -2 15 -10 30 -15 34 -11 3 3 2 6 -4 6 -6 0 -13 7 -17 15
-5 13 -2 14 17 4 l22 -12 -20 23 -20 23 30 -19 c30 -18 30 -18 15 1 -14 17
-13 18 2 12 13 -4 15 -2 11 11 -6 14 -4 15 9 4 13 -10 15 -9 10 13 -2 14 -9
25 -15 25 -6 0 -8 2 -5 5 9 10 38 -7 31 -18 -3 -6 -1 -7 6 -3 7 5 9 12 3 19
-11 15 -25 54 -16 44 9 -8 36 12 29 22 -2 4 2 8 10 8 10 0 12 -4 5 -12 -5 -7
-6 -16 -2 -20 4 -5 1 -5 -7 0 -10 6 -12 4 -6 -5 5 -9 4 -11 -3 -6 -17 10 -15
1 4 -14 12 -11 15 -11 12 1 -2 8 3 13 11 11 12 -3 12 0 2 11 -9 12 -9 16 1 19
11 4 11 8 0 20 -10 13 -10 18 -1 24 8 5 9 3 4 -6 -5 -8 -4 -11 3 -6 6 3 9 20
7 36 -3 28 -3 29 19 15 21 -14 22 -13 21 13 0 17 5 26 13 24 8 -1 11 2 8 7 -4
5 -3 11 1 14 5 2 2 2 -4 1 -7 -2 -13 1 -13 6 0 6 8 10 18 10 9 0 13 4 7 8 -18
13 -16 32 4 32 32 0 45 30 27 59 -7 10 -6 12 4 6 10 -6 12 -4 7 8 -3 10 -2 17
3 17 5 0 7 6 4 13 -2 7 5 23 17 36 l22 23 -24 -7 c-21 -7 -22 -6 -10 8 7 9 11
23 8 31 -3 7 8 27 23 45 l29 31 -1 246 c-1 207 -3 244 -15 240 -8 -3 -11 -2
-8 3 3 6 -3 15 -12 21 -13 8 -14 13 -6 16 7 3 13 10 13 15 0 6 -4 8 -9 5 -4
-3 -17 1 -27 10 -18 14 -18 15 3 5 16 -8 22 -7 26 3 3 8 -1 13 -10 12 -9 0
-17 7 -18 17 -2 9 1 15 6 11 5 -3 7 -10 4 -15 -3 -5 1 -6 11 -2 14 5 15 7 1
15 -9 5 -14 15 -11 23 4 8 1 15 -5 15 -6 0 -11 5 -11 11 0 5 4 8 9 5 5 -4 8 1
7 10 -3 21 -36 45 -49 37 -6 -3 -7 -1 -3 5 3 6 2 13 -4 17 -5 3 -10 11 -10 18
0 6 7 1 16 -11 16 -23 34 -29 34 -12 0 5 -6 9 -12 7 -8 -1 -12 7 -10 23 1 14
-1 21 -5 15 -5 -5 -17 -11 -28 -12 -19 -1 -19 -1 -2 12 15 10 15 14 3 18 -8 3
-17 2 -20 -4 -2 -5 -3 -4 -2 3 2 7 12 12 22 10 15 -2 14 1 -6 13 -14 9 -17 14
-8 11 10 -3 20 -1 23 3 3 5 -9 8 -26 7 -28 -2 -29 -1 -13 11 10 7 14 13 8 13
-5 0 -22 12 -39 26 -16 14 -24 22 -16 18 11 -5 13 -3 8 10 -4 11 -3 15 4 11 6
-4 8 -13 5 -20 -2 -7 2 -16 9 -19 11 -4 12 0 5 18 -5 13 -6 27 -2 31 4 4 2 6
-3 5 -20 -4 -35 0 -35 11 0 5 4 8 8 5 5 -3 9 1 9 9 0 12 -4 12 -19 -2 -15 -14
-19 -14 -16 -3 2 8 -3 14 -10 12 -10 -2 -10 2 -1 20 11 21 11 22 -4 10 -13
-11 -15 -10 -10 7 3 12 10 18 15 15 5 -3 4 3 -3 15 -8 11 -16 16 -19 11 -4 -6
-14 -4 -25 4 -11 8 -26 12 -35 9 -13 -4 -13 -4 0 6 9 6 18 7 24 1 13 -13 26
-13 26 1 0 5 -5 7 -10 4 -6 -3 -13 1 -16 10 -5 11 -10 13 -19 5 -10 -9 -12 -7
-9 8 3 10 -2 25 -12 33 -20 16 -24 16 -35 -3 -6 -9 -8 -6 -6 9 1 16 5 19 13
12 8 -7 15 -6 20 2 4 7 3 9 -4 5 -6 -3 -14 -1 -17 5 -4 5 -14 8 -22 5 -8 -3
-11 -1 -8 4 3 6 2 10 -3 10 -6 0 -13 7 -16 16 -5 14 -4 15 8 5 11 -9 15 -8 20
4 4 11 2 14 -6 9 -6 -4 -17 1 -25 11 -7 11 -13 13 -13 7 0 -7 -5 -12 -12 -12
-6 0 -8 3 -5 7 4 3 2 12 -4 20 -9 10 -15 11 -26 2 -10 -9 -17 -9 -24 -2 -8 8
-7 13 2 18 8 5 10 4 5 -3 -4 -7 -3 -12 2 -12 6 0 13 7 16 16 3 8 2 12 -4 9 -6
-3 -10 -1 -10 5 0 8 -6 8 -21 0 -11 -7 -23 -9 -27 -6 -3 3 0 6 7 6 7 0 9 5 6
10 -4 6 -10 8 -15 5 -5 -3 -11 -1 -15 5 -4 6 -11 8 -16 4 -5 -3 -8 0 -7 8 2 8
-4 12 -17 10 -17 -4 -17 -2 4 15 19 15 21 22 11 28 -8 5 -11 4 -6 -3 3 -6 2
-13 -4 -17 -6 -3 -13 0 -16 9 -7 19 -32 28 -40 14 -4 -7 -3 -8 4 -4 8 5 10 1
5 -9 -4 -13 -8 -14 -14 -4 -4 7 -5 17 -2 22 3 5 -5 6 -18 2 -23 -7 -24 -7 -4
9 20 15 20 15 -2 16 -30 0 -54 11 -47 21 3 5 -3 6 -13 2 -16 -6 -17 -5 -3 12
14 17 14 17 -7 5 -12 -8 -19 -18 -16 -24 4 -5 1 -6 -6 -2 -7 5 -10 14 -7 22 3
8 1 14 -4 14 -6 0 -10 -6 -10 -13 0 -8 -7 -14 -15 -14 -8 0 -12 4 -9 8 2 4 1
9 -3 12 -5 2 -3 2 4 1 15 -4 25 24 11 32 -6 4 -8 3 -5 -3 11 -18 -42 -22 -55
-5 -11 13 -11 14 2 7 9 -5 8 0 -4 13 -19 22 -32 30 -22 13 5 -7 -14 -21 -34
-25 -3 -1 -10 -5 -17 -9 -6 -4 -15 -2 -19 4 -4 7 -3 9 4 5 6 -3 13 -2 17 4 4
6 11 8 16 5 5 -4 9 1 9 10 0 12 -4 14 -18 6 -27 -14 -74 -22 -67 -10 4 5 1 9
-4 9 -6 0 -11 5 -11 11 0 6 5 7 13 2 19 -11 47 -14 47 -4 0 5 -8 8 -17 6 -10
-1 -26 7 -36 19 -16 20 -17 20 -10 1 6 -18 5 -19 -11 -5 -22 17 -43 19 -70 7
-12 -6 -16 -5 -12 1 5 8 -70 11 -239 10 -142 0 -245 -5 -245 -10z m75 -18
c-10 -11 -22 -20 -28 -20 -5 0 1 9 14 20 31 25 37 25 14 0z m493 -8 c2 -6 -1
-12 -8 -12 -6 0 -8 5 -5 10 3 6 1 10 -4 10 -6 0 -11 -4 -11 -10 0 -5 -5 -10
-11 -10 -5 0 -7 5 -3 12 5 8 2 9 -10 5 -9 -4 -15 -3 -11 2 8 14 58 8 63 -7z
m-103 -2 c-3 -5 -12 -10 -18 -10 -7 0 -6 4 3 10 19 12 23 12 15 0z m-440 -20
c3 -6 -1 -7 -9 -4 -18 7 -21 14 -7 14 6 0 13 -4 16 -10z m688 -15 c-3 -9 -8
-14 -10 -11 -3 3 -2 9 2 15 9 16 15 13 8 -4z m262 -124 c3 -5 2 -12 -3 -15 -5
-3 -9 1 -9 9 0 17 3 19 12 6z m-1486 -85 c9 -11 9 -16 0 -22 -8 -4 -9 -3 -5 4
4 7 2 12 -3 12 -6 0 -11 5 -11 10 0 14 5 13 19 -4z m1646 -26 c3 -5 1 -10 -4
-10 -6 0 -11 5 -11 10 0 6 2 10 4 10 3 0 8 -4 11 -10z m-1691 -15 c-7 -18 -20
-19 -30 -3 -4 6 -3 8 4 4 6 -3 13 -2 17 4 9 15 15 12 9 -5z m1691 -15 c3 -5 1
-10 -4 -10 -6 0 -11 5 -11 10 0 6 2 10 4 10 3 0 8 -4 11 -10z m-1705 -17 c0
-3 -7 -3 -15 1 -8 3 -15 1 -15 -4 0 -6 -5 -10 -11 -10 -8 0 -8 4 1 14 10 13
40 12 40 -1z m1910 -156 c0 -2 -10 -12 -22 -23 l-23 -19 19 23 c18 21 26 27
26 19z m-2160 -137 c0 -5 -5 -10 -11 -10 -5 0 -7 5 -4 10 3 6 8 10 11 10 2 0
4 -4 4 -10z m2344 -209 c4 -5 -3 -7 -14 -4 -23 6 -26 13 -6 13 8 0 17 -4 20
-9z m3 -57 c-3 -3 -12 -4 -19 -1 -8 3 -5 6 6 6 11 1 17 -2 13 -5z m-2487 -127
c0 -6 -3 -7 -7 -4 -3 4 -12 2 -19 -4 -9 -8 -12 -6 -9 8 2 10 4 19 4 20 3 7 31
-11 31 -20z m-10 -21 c0 -2 -8 -10 -17 -17 -16 -13 -17 -12 -4 4 13 16 21 21
21 13z m29 -9 c-2 -1 -13 -9 -24 -17 -19 -14 -19 -14 -6 3 7 9 18 17 24 17 6
0 8 -1 6 -3z m-19 -41 c0 -3 -4 -8 -10 -11 -5 -3 -10 -1 -10 4 0 6 5 11 10 11
6 0 10 -2 10 -4z m2519 -359 c8 -10 7 -14 -2 -14 -8 0 -14 6 -14 14 0 7 1 13
2 13 2 0 8 -6 14 -13z m-2499 -87 c0 -5 -2 -10 -4 -10 -3 0 -8 5 -11 10 -3 6
-1 10 4 10 6 0 11 -4 11 -10z m2470 -116 c0 -8 -19 -13 -24 -6 -3 5 1 9 9 9 8
0 15 -2 15 -3z m-24 -99 c-3 -20 -16 -31 -16 -13 0 13 8 28 16 28 1 0 1 -7 0
-15z m-2366 -85 c0 -5 -2 -10 -4 -10 -3 0 -8 5 -11 10 -3 6 -1 10 4 10 6 0 11
-4 11 -10z m160 -271 c0 -6 7 -9 15 -5 23 8 18 -2 -7 -15 -13 -6 -20 -8 -16
-4 4 5 3 14 -3 22 -9 9 -8 13 0 13 6 0 11 -5 11 -11z m1921 -66 c13 -16 12
-17 -3 -4 -10 7 -18 15 -18 17 0 8 8 3 21 -13z m-1813 -40 c-2 -10 3 -18 11
-18 8 0 16 -7 18 -15 4 -13 3 -13 -6 0 -9 13 -11 13 -11 1 0 -11 -4 -10 -14 4
-8 11 -12 25 -9 32 7 19 14 16 11 -4z m1680 -93 c-18 -16 -35 -26 -38 -24 -3
3 3 10 13 15 9 6 14 15 11 21 -4 7 -2 8 5 4 6 -4 14 0 17 8 3 9 10 13 15 10 6
-3 -5 -19 -23 -34z m-48 -31 c0 -4 -7 -10 -16 -13 -8 -3 -12 -10 -9 -16 3 -5
1 -10 -4 -10 -8 0 -9 38 -2 46 4 4 31 -1 31 -7z m-1394 -40 c3 -6 1 -16 -6
-22 -10 -9 -11 -9 -5 2 4 8 2 17 -6 22 -9 6 -10 9 -2 9 6 0 15 -5 19 -11z
m1218 -58 c-8 -8 -34 -10 -38 -2 -3 4 6 7 19 7 14 0 22 -2 19 -5z m-209 -61
c3 -5 1 -10 -4 -10 -6 0 -11 5 -11 10 0 6 2 10 4 10 3 0 8 -4 11 -10z m-670
-20 c-3 -5 -1 -10 4 -10 6 0 11 -5 11 -11 0 -8 -4 -9 -13 0 -8 6 -18 7 -23 3
-4 -4 -2 1 5 11 14 18 26 24 16 7z m40 -19 c-3 -5 -1 -12 5 -16 5 -3 10 2 10
11 0 16 1 16 13 2 6 -9 19 -18 27 -21 8 -3 1 -5 -15 -3 -17 1 -36 6 -43 10
-15 9 -16 26 -1 26 5 0 8 -4 4 -9z m471 -6 c-1 -8 -5 -17 -8 -21 -5 -4 -4 16
1 34 3 9 9 -1 7 -13z"/>
<path d="M1754 2530 c0 -13 4 -16 10 -10 7 7 7 13 0 20 -6 6 -10 3 -10 -10z"/>
<path d="M2030 2381 c0 -5 8 -15 18 -22 9 -7 14 -9 10 -5 -4 5 -4 14 2 20 6 8
3 12 -11 13 -10 1 -19 -2 -19 -6z"/>
<path d="M2375 2040 c-3 -5 -1 -10 4 -10 6 0 11 5 11 10 0 6 -2 10 -4 10 -3 0
-8 -4 -11 -10z"/>
<path d="M16 1623 c-6 -14 -5 -15 5 -6 7 7 10 15 7 18 -3 3 -9 -2 -12 -12z"/>
<path d="M2578 1623 c-7 -17 -2 -56 8 -60 5 -2 10 8 10 22 0 14 -4 25 -9 25
-4 0 -5 5 -2 10 3 6 4 10 1 10 -3 0 -6 -3 -8 -7z"/>
<path d="M30 1599 c0 -5 5 -7 10 -4 6 3 10 8 10 11 0 2 -4 4 -10 4 -5 0 -10
-5 -10 -11z"/>
<path d="M2583 1034 c3 -4 -3 -14 -13 -23 -18 -15 -18 -18 -4 -36 11 -14 15
-15 14 -5 -4 26 0 41 8 36 4 -2 9 4 9 15 1 10 -3 19 -9 19 -6 0 -9 -3 -5 -6z"/>
<path d="M40 1001 c0 -6 4 -13 10 -16 6 -3 7 1 4 9 -7 18 -14 21 -14 7z"/>
<path d="M242 524 c10 -10 20 -15 24 -12 3 4 -5 12 -18 18 -22 12 -22 12 -6
-6z"/>
<path d="M490 270 c-11 -7 -11 -10 -2 -11 6 -1 17 -2 22 -3 6 0 15 -8 20 -16
5 -8 10 -10 10 -4 0 20 -34 44 -50 34z"/>
<path d="M1910 138 c-12 -22 -12 -22 6 -6 10 10 15 20 12 24 -4 3 -12 -5 -18
-18z"/>
<path d="M730 131 c0 -5 5 -13 10 -16 6 -3 10 -2 10 4 0 5 -4 13 -10 16 -5 3
-10 2 -10 -4z"/>
<path d="M802 83 c-11 -26 -11 -27 3 -9 10 13 15 15 15 6 0 -7 3 -11 6 -7 3 3
2 13 -3 22 -8 13 -11 12 -21 -12z"/>
<path d="M840 76 c0 -2 7 -7 16 -10 8 -3 12 -2 9 4 -6 10 -25 14 -25 6z"/>
<path d="M929 43 c-13 -16 -12 -17 4 -4 16 13 21 21 13 21 -2 0 -10 -8 -17
-17z"/>
<path d="M1560 45 c0 -9 6 -12 15 -9 8 4 15 7 15 9 0 2 -7 5 -15 9 -9 3 -15 0
-15 -9z"/>
</g>
</svg>
