<svg width="17" height="17" data-icon="arrow-left" class="arrow-left" viewBox="0 0 17 17" xmlns="http://www.w3.org/2000/svg">
<title>Arrow left</title>
<path d="M9.60882 1.94275L8.79118 1.16228C8.44498 0.831812 7.88516 0.831812 7.54263 1.16228L0.382814 7.99314C0.0366077 8.32361 0.0366077 8.85798 0.382814 9.18494L7.54263 16.0193C7.88884 16.3498 8.44866 16.3498 8.79118 16.0193L9.60882 15.2388C9.95871 14.9049 9.95134 14.3599 9.59409 14.033L5.15603 9.99705H15.7411C16.2309 9.99705 16.625 9.62087 16.625 9.1533V8.0283C16.625 7.56072 16.2309 7.18455 15.7411 7.18455H5.15603L9.59409 3.14861C9.95502 2.82166 9.96239 2.27673 9.60882 1.94275Z" />
</svg>
